<?xml version="1.0" encoding="utf-8"?>
<!-- Generator: Adobe Illustrator 21.0.0, SVG Export Plug-In . SVG Version: 6.00 Build 0)  -->
<svg version="1.1" id="Layer_1" xmlns="http://www.w3.org/2000/svg" xmlns:xlink="http://www.w3.org/1999/xlink" x="0px" y="0px"
	 viewBox="0 0 696 175.3" style="enable-background:new 0 0 696 175.3;" xml:space="preserve">
<style type="text/css">
	.st0{opacity:0.5;fill:#B3C4F4;}
	.st1{opacity:0.5;fill:#A2B8EA;}
	.st2{fill:none;stroke:#F3B82F;stroke-width:1.5;stroke-miterlimit:10;}
	.st3{fill:none;stroke:#007BFF;stroke-width:1.5;stroke-miterlimit:10;}
</style>
<path class="st0" d="M0,111c0,0,80-104.8,225.5,64.3H0V111z"/>
<path class="st1" d="M0,175.3v-20.5c0,0,22.8-14.1,53-20.3s101.5-19.3,123.3-52s42.5-75,96.8-78.3c17.7-1.1,66-3.3,156,95.3
	c24.2,26.4,36.8,51.3,116.3,49.3s116.3-6.3,150.8,26.6H0z"/>
<g>
	<circle class="st2" cx="585.9" cy="79.2" r="4.9"/>
	<circle class="st3" cx="573.7" cy="98.1" r="4.9"/>
	<g>
		<g>
			<g>
				<line class="st3" x1="604.6" y1="71.7" x2="604.6" y2="82.8"/>
			</g>
			<g>
				<line class="st3" x1="599.1" y1="77.3" x2="610.1" y2="77.3"/>
			</g>
		</g>
	</g>
	<g>
		<line class="st2" x1="592.8" y1="92.6" x2="592.8" y2="103.6"/>
		<line class="st2" x1="587.2" y1="98.1" x2="598.3" y2="98.1"/>
	</g>
</g>
<g>
	<circle class="st2" cx="43.6" cy="21.9" r="4.2"/>
	<circle class="st3" cx="33" cy="38.2" r="4.2"/>
	<g>
		<g>
			<g>
				<line class="st3" x1="59.9" y1="15.4" x2="59.9" y2="25"/>
			</g>
			<g>
				<line class="st3" x1="55.1" y1="20.2" x2="64.7" y2="20.2"/>
			</g>
		</g>
	</g>
	<g>
		<line class="st2" x1="49.6" y1="33.4" x2="49.6" y2="43"/>
		<line class="st2" x1="44.8" y1="38.2" x2="54.4" y2="38.2"/>
	</g>
</g>
</svg>
